<?xml version="1.0" encoding="utf-8"?>
<!-- Generator: Adobe Illustrator 23.0.3, SVG Export Plug-In . SVG Version: 6.00 Build 0)  -->
<svg version="1.1" id="Layer_1" focusable="false" xmlns="http://www.w3.org/2000/svg" xmlns:xlink="http://www.w3.org/1999/xlink"
	 x="0px" y="0px" viewBox="0 0 448 512" style="enable-background:new 0 0 448 512;" xml:space="preserve">
<style type="text/css">
	.st0{display:none;}
</style>
<path d="M400,224H152v-71.1c0-39.6,31.7-72.5,71.3-72.9c40-0.4,72.7,32.1,72.7,72v16c0,13.3,10.7,24,24,24h32c13.3,0,24-10.7,24-24
	v-16C376,68,307.5-0.3,223.5,0S72,69.5,72,153.5V224H48c-26.5,0-48,21.5-48,48v192c0,26.5,21.5,48,48,48h352c26.5,0,48-21.5,48-48
	V272C448,245.5,426.5,224,400,224z M264,392c0,22.1-17.9,40-40,40s-40-17.9-40-40v-48c0-22.1,17.9-40,40-40s40,17.9,40,40V392z"/>
<path class="st0" d="M400,224h-24v-72C376,68.2,307.8,0,224,0S72,68.2,72,152v72H48c-26.5,0-48,21.5-48,48v192c0,26.5,21.5,48,48,48
	h352c26.5,0,48-21.5,48-48V272C448,245.5,426.5,224,400,224z M264,392c0,22.1-17.9,40-40,40s-40-17.9-40-40v-48
	c0-22.1,17.9-40,40-40s40,17.9,40,40V392z M296,224H152v-72c0-39.7,32.3-72,72-72s72,32.3,72,72V224z"/>
</svg>
